<?xml version="1.0" encoding="UTF-8"?>
<!DOCTYPE svg PUBLIC "-//W3C//DTD SVG 1.1//EN" "http://www.w3.org/Graphics/SVG/1.1/DTD/svg11.dtd">
<!-- Creator: CorelDRAW 2020 (64-Bit) -->
<svg xmlns="http://www.w3.org/2000/svg" xml:space="preserve" width="50mm" height="50mm" version="1.1" style="shape-rendering:geometricPrecision; text-rendering:geometricPrecision; image-rendering:optimizeQuality; fill-rule:evenodd; clip-rule:evenodd"
viewBox="0 0 5000 5000"
 xmlns:xlink="http://www.w3.org/1999/xlink"
 xmlns:xodm="http://www.corel.com/coreldraw/odm/2003">
 <defs>
  <style type="text/css">
   <![CDATA[
    .fil0 {fill:#2B2A29}
   ]]>
  </style>
 </defs>
 <g id="Слой_x0020_1">
  <metadata id="CorelCorpID_0Corel-Layer"/>
  <g id="_2433877231920">
   <path class="fil0" d="M-6.13 1142.37c0,251.47 766.99,480.31 1173.04,653.11 1757.19,747.76 1058.54,598.54 3251.75,-263.26 1180.29,-463.8 314.8,-647.14 -615.37,-1042.96 -1513.71,-644.16 -1122.67,-644.16 -2636.38,0 -232.18,98.81 -374.69,168.69 -615.37,263.26 -201.95,79.35 -557.67,155.64 -557.67,389.85z"/>
   <path class="fil0" d="M-6.13 3869.89c0,251.47 766.99,480.32 1173.04,653.11 1513.71,644.16 1122.67,644.16 2636.38,0 788.42,-335.52 1828.37,-585.96 663.54,-1029.99 -525.07,-200.15 -1304.7,581.44 -1981.73,581.44 -241.88,0 -1125.08,-378.23 -1345.12,-479.77 -268.96,-124.11 -312.11,-216.52 -589.98,-120.48 -195.16,67.44 -556.13,178.14 -556.13,395.69z"/>
   <path class="fil0" d="M-6.13 2506.13c0,251.47 766.99,480.31 1173.04,653.11 1757.19,747.76 1058.54,598.54 3251.75,-263.26 585.95,-230.25 908.7,-438.71 48.17,-766.73 -525.07,-200.15 -1304.7,581.44 -1981.73,581.44 -612.98,0 -1497.37,-751.55 -1935.1,-600.26 -195.16,67.45 -556.13,178.15 -556.13,395.7z"/>
  </g>
 </g>
</svg>
