<?xml version="1.0" encoding="UTF-8"?>
<!DOCTYPE svg PUBLIC "-//W3C//DTD SVG 1.1//EN" "http://www.w3.org/Graphics/SVG/1.1/DTD/svg11.dtd">
<!-- Creator: CorelDRAW 2020 (64-Bit) -->
<svg xmlns="http://www.w3.org/2000/svg" xml:space="preserve" width="50mm" height="50mm" version="1.1" style="shape-rendering:geometricPrecision; text-rendering:geometricPrecision; image-rendering:optimizeQuality; fill-rule:evenodd; clip-rule:evenodd"
viewBox="0 0 5000 5000"
 xmlns:xlink="http://www.w3.org/1999/xlink"
 xmlns:xodm="http://www.corel.com/coreldraw/odm/2003">
 <defs>
  <style type="text/css">
   <![CDATA[
    .fil0 {fill:black}
   ]]>
  </style>
 </defs>
 <g id="Слой_x0020_1">
  <metadata id="CorelCorpID_0Corel-Layer"/>
  <g id="_2433881088528">
   <path class="fil0" d="M1.99 2723.08c118.55,444.07 124.07,276.13 1009.95,721.77 1213.5,610.43 1657.06,658.14 2886.94,36.29 829.28,-419.28 963.14,-313.19 1081.91,-758.06 -226.34,-308.96 -672.44,-399.47 -1066.85,-556.68 -308.16,-122.85 -823.69,-385.63 -1206.07,-417.45l0 1190.58 -432.97 0 0 -1190.58c-382.38,31.82 -897.91,294.6 -1206.07,417.45 -394.41,157.21 -840.51,247.72 -1066.84,556.68zm902.14 -193.57c231.64,0 419.41,121.13 419.41,270.58 0,149.44 -187.77,270.57 -419.41,270.57 -231.64,0 -419.41,-121.13 -419.41,-270.57 0,-149.45 187.77,-270.58 419.41,-270.58z"/>
   <path class="fil0" d="M2383.14 4779.53c716.99,0 1735.57,-454.53 2319.89,-818.93 382.29,-238.4 277.76,-132.24 277.76,-696.37 -807.84,188.23 -1575.81,974.12 -2489.4,974.12 -913.59,0 -1681.57,-785.89 -2489.4,-974.12 0,703.21 -159.64,462.27 937.89,1010.36 436.43,217.92 857.13,504.94 1443.26,504.94z"/>
   <path class="fil0" d="M1841.96 774.83c0,1036.28 1298.85,1036.28 1298.85,0 0,-722.79 -1298.85,-722.79 -1298.85,0z"/>
  </g>
 </g>
</svg>
