<?xml version="1.0" encoding="UTF-8"?>
<!DOCTYPE svg PUBLIC "-//W3C//DTD SVG 1.1//EN" "http://www.w3.org/Graphics/SVG/1.1/DTD/svg11.dtd">
<!-- Creator: CorelDRAW 2020 (64-Bit) -->
<svg xmlns="http://www.w3.org/2000/svg" xml:space="preserve" width="50mm" height="50mm" version="1.1" style="shape-rendering:geometricPrecision; text-rendering:geometricPrecision; image-rendering:optimizeQuality; fill-rule:evenodd; clip-rule:evenodd"
viewBox="0 0 5000 5000"
 xmlns:xlink="http://www.w3.org/1999/xlink"
 xmlns:xodm="http://www.corel.com/coreldraw/odm/2003">
 <defs>
  <style type="text/css">
   <![CDATA[
    .fil0 {fill:black}
   ]]>
  </style>
 </defs>
 <g id="Слой_x0020_1">
  <metadata id="CorelCorpID_0Corel-Layer"/>
  <g id="_1820838083936">
   <path class="fil0" d="M-6.13 3131.14c554.62,0 582.67,-93.95 1041.65,-104.17 12.73,570.77 366.74,924.78 937.51,937.51 -10.22,458.98 -104.17,487.03 -104.17,1041.65 1545.39,-128.59 1464.31,-1309.97 1549.08,-1471.75 155.58,-296.91 1575.93,-1412.2 1575.93,-3528.25 -2031.75,0 -2878.84,1151.08 -3464.61,1535.39 -386.26,253.37 -410.47,36.64 -808.62,233.03 -321.35,158.53 -688.8,900.01 -726.77,1356.59zm3347.92 -1935.9c213.55,0 386.67,179.09 386.67,400.02 0,220.92 -173.12,400.01 -386.67,400.01 -213.54,0 -386.67,-179.09 -386.67,-400.01 0,-220.93 173.13,-400.02 386.67,-400.02z"/>
   <path class="fil0" d="M1788.32 3105.85l0 105.83c172.4,0 301.68,14.96 352.77,-176.38 -83.05,19.34 -104.19,32.88 -211.66,35.27 2.39,-107.47 15.93,-128.61 35.28,-211.66 -119.4,31.88 -176.39,97.03 -176.39,246.94z"/>
  </g>
 </g>
</svg>
